<?xml version="1.0"?>
<svg xmlns="http://www.w3.org/2000/svg" xmlns:xlink="http://www.w3.org/1999/xlink" xmlns:svgjs="http://svgjs.com/svgjs" version="1.1" width="256" height="256" x="0" y="0" viewBox="0 0 24 24" style="enable-background:new 0 0 512 512" xml:space="preserve"><g><circle cx="7" cy="22" r="2" fill="#5adbff" data-original="#000000"/><circle cx="17" cy="22" r="2" fill="#5adbff" data-original="#000000"/><path d="M23.685,1.336a1,1,0,0,0-1.414,0L17.112,6.5,15.561,4.881a1,1,0,0,0-1.442,1.386l1.614,1.679a1.872,1.872,0,0,0,1.345.6h.033a1.873,1.873,0,0,0,1.335-.553L23.685,2.75A1,1,0,0,0,23.685,1.336Z" fill="#5adbff" data-original="#000000"/><path d="M21.9,9.016a1,1,0,0,0-1.162.807l-.128.709A3,3,0,0,1,17.657,13H5.418l-.94-8H11a1,1,0,0,0,0-2H4.242L4.2,2.648A3,3,0,0,0,1.222,0H1A1,1,0,0,0,1,2h.222a1,1,0,0,1,.993.883l1.376,11.7A5,5,0,0,0,8.557,19H19a1,1,0,0,0,0-2H8.557a3,3,0,0,1-2.829-2H17.657a5,5,0,0,0,4.921-4.113l.128-.71A1,1,0,0,0,21.9,9.016Z" fill="#5adbff" data-original="#000000"/></g></svg>
